<svg width="16" height="15" viewBox="0 0 16 15" fill="none" xmlns="http://www.w3.org/2000/svg">
<path d="M11.9929 14.7014H4.02417C2.08565 14.7014 0.508545 13.2294 0.508545 11.4202V6.79907C0.508545 4.98979 2.08565 3.51782 4.02417 3.51782H6.36792C6.69153 3.51782 6.95386 3.76266 6.95386 4.0647C6.95386 4.36674 6.69153 4.61157 6.36792 4.61157H4.02417C2.73183 4.61157 1.68042 5.59289 1.68042 6.79907V11.4202C1.68042 12.6264 2.73183 13.6077 4.02417 13.6077H11.9929C13.2853 13.6077 14.3367 12.6264 14.3367 11.4202V8.27563C14.3367 7.9736 14.599 7.72876 14.9226 7.72876C15.2462 7.72876 15.5085 7.9736 15.5085 8.27563V11.4202C15.5085 13.2294 13.9314 14.7014 11.9929 14.7014ZM15.5085 4.14673C15.5085 2.24697 13.8526 0.701416 11.8171 0.701416C9.78168 0.701416 8.12573 2.24697 8.12573 4.14673C8.12573 6.04649 9.78168 7.59204 11.8171 7.59204C13.8526 7.59204 15.5085 6.04649 15.5085 4.14673ZM14.3367 4.14673C14.3367 5.44337 13.2064 6.49829 11.8171 6.49829C10.4279 6.49829 9.29761 5.44337 9.29761 4.14673C9.29761 2.85009 10.4279 1.79517 11.8171 1.79517C13.2064 1.79517 14.3367 2.85009 14.3367 4.14673Z" fill="#100DB1"/>
<path d="M8.00837 10.8712C7.25617 10.8712 6.50409 10.6478 5.87652 10.201L3.08359 8.21876C2.82602 8.03594 2.77598 7.69283 2.97186 7.45242C3.16776 7.21199 3.53535 7.16529 3.79293 7.34813L6.58653 9.33089C7.42407 9.92712 8.59308 9.92709 9.42994 9.33138L10.4065 8.63422C10.6635 8.45075 11.0313 8.49646 11.2279 8.73635C11.4245 8.97624 11.3755 9.31948 11.1185 9.50296L10.1413 10.2006C9.5132 10.6477 8.76074 10.8712 8.00837 10.8712ZM12.4031 4.99439V3.29907C12.4031 2.99703 12.1408 2.7522 11.8172 2.7522H11.2312C10.9076 2.7522 10.6453 2.99703 10.6453 3.29907C10.6453 3.60111 10.9076 3.84595 11.2312 3.84595V4.99439C11.2312 5.29642 11.4936 5.54126 11.8172 5.54126C12.1408 5.54126 12.4031 5.29642 12.4031 4.99439Z" fill="#F80D38"/>
</svg>
