<svg width="17" height="17" viewBox="0 0 17 17" fill="none" xmlns="http://www.w3.org/2000/svg">
<path d="M12.9122 10.3492C12.5969 10.0209 12.2166 9.84537 11.8136 9.84537C11.4138 9.84537 11.0302 10.0176 10.702 10.3459L9.67487 11.3698C9.59036 11.3242 9.50585 11.282 9.42459 11.2397C9.30758 11.1812 9.19707 11.126 9.10282 11.0675C8.14073 10.4564 7.2664 9.6601 6.42782 8.62976C6.02154 8.11621 5.74851 7.68392 5.55025 7.24513C5.81677 7.00136 6.06379 6.74784 6.30431 6.50407C6.39532 6.41306 6.48633 6.3188 6.57734 6.22779C7.2599 5.54523 7.2599 4.66115 6.57734 3.97859L5.69001 3.09126C5.58925 2.9905 5.48524 2.88649 5.38773 2.78248C5.19271 2.58096 4.98795 2.37294 4.77668 2.17793C4.4614 1.8659 4.08436 1.70013 3.68783 1.70013C3.29129 1.70013 2.90776 1.8659 2.58273 2.17793C2.57948 2.18118 2.57948 2.18118 2.57623 2.18443L1.47113 3.29928C1.05509 3.71532 0.817821 4.22236 0.765816 4.81066C0.687809 5.75975 0.967334 6.64383 1.18185 7.22238C1.7084 8.64276 2.49497 9.95913 3.66833 11.3698C5.09195 13.0697 6.80486 14.412 8.76153 15.3579C9.5091 15.7121 10.5069 16.1314 11.6218 16.2029C11.69 16.2062 11.7616 16.2094 11.8266 16.2094C12.5774 16.2094 13.2079 15.9397 13.702 15.4034C13.7052 15.3969 13.7117 15.3936 13.715 15.3871C13.884 15.1823 14.079 14.9971 14.2838 14.7988C14.4235 14.6655 14.5666 14.5258 14.7063 14.3795C15.0281 14.0447 15.1971 13.6547 15.1971 13.2549C15.1971 12.8519 15.0248 12.4651 14.6966 12.1401L12.9122 10.3492ZM14.0758 13.7717C14.0725 13.7717 14.0725 13.775 14.0758 13.7717C13.949 13.9082 13.819 14.0317 13.6792 14.1683C13.468 14.3698 13.2534 14.581 13.0519 14.8183C12.7236 15.1693 12.3369 15.3351 11.8298 15.3351C11.7811 15.3351 11.7291 15.3351 11.6803 15.3319C10.715 15.2701 9.81788 14.8931 9.14507 14.5713C7.3054 13.6807 5.69001 12.4163 4.34764 10.814C3.23929 9.47808 2.49822 8.24297 2.00743 6.91685C1.70515 6.10753 1.59464 5.47697 1.64339 4.88217C1.6759 4.50189 1.82216 4.18661 2.09194 3.91683L3.20028 2.80848C3.35955 2.65897 3.52856 2.57771 3.69433 2.57771C3.8991 2.57771 4.06486 2.70122 4.16887 2.80523C4.17212 2.80848 4.17537 2.81173 4.17862 2.81498C4.37689 3.00025 4.56541 3.19202 4.76367 3.39679C4.86443 3.5008 4.96844 3.60481 5.07245 3.71206L5.95978 4.59939C6.30431 4.94393 6.30431 5.26245 5.95978 5.60699C5.86552 5.70124 5.77452 5.7955 5.68026 5.88651C5.40723 6.16604 5.14721 6.42606 4.86443 6.67958C4.85793 6.68608 4.85143 6.68933 4.84818 6.69583C4.56866 6.97536 4.62066 7.24838 4.67917 7.43365C4.68242 7.4434 4.68567 7.45315 4.68892 7.4629C4.91969 8.02195 5.24472 8.5485 5.73876 9.17581L5.74201 9.17906C6.63909 10.2842 7.58493 11.1455 8.62827 11.8053C8.76153 11.8898 8.89805 11.9581 9.02806 12.0231C9.14507 12.0816 9.25558 12.1368 9.34984 12.1953C9.36284 12.2018 9.37584 12.2116 9.38884 12.2181C9.49935 12.2733 9.60336 12.2993 9.71062 12.2993C9.98039 12.2993 10.1494 12.1303 10.2047 12.0751L11.3163 10.9635C11.4268 10.853 11.6023 10.7197 11.8071 10.7197C12.0086 10.7197 12.1743 10.8465 12.2751 10.957C12.2783 10.9602 12.2783 10.9602 12.2816 10.9635L14.0725 12.7544C14.4073 13.0859 14.4073 13.4272 14.0758 13.7717Z" fill="white"/>
<path d="M9.06382 4.47259C9.91539 4.61561 10.689 5.01864 11.3065 5.6362C11.9241 6.25375 12.3239 7.02732 12.4701 7.8789C12.5059 8.09342 12.6911 8.24293 12.9024 8.24293C12.9284 8.24293 12.9512 8.23968 12.9772 8.23643C13.2177 8.19743 13.377 7.96991 13.338 7.72939C13.1624 6.69904 12.6749 5.75971 11.9306 5.01539C11.1863 4.27108 10.2469 3.78353 9.21658 3.60802C8.97606 3.56901 8.75179 3.72828 8.70953 3.96555C8.66728 4.20282 8.82329 4.43359 9.06382 4.47259Z" fill="white"/>
<path d="M16.1234 7.60266C15.8341 5.906 15.0346 4.36211 13.806 3.1335C12.5774 1.90489 11.0335 1.10532 9.33681 0.816046C9.09954 0.773792 8.87527 0.936307 8.83302 1.17358C8.79402 1.4141 8.95328 1.63837 9.1938 1.68062C10.7084 1.9374 12.0898 2.65571 13.1884 3.75106C14.287 4.84966 15.0021 6.23103 15.2588 7.74567C15.2946 7.96019 15.4799 8.1097 15.6911 8.1097C15.7171 8.1097 15.7399 8.10645 15.7659 8.1032C16.0032 8.06745 16.1657 7.83993 16.1234 7.60266Z" fill="white"/>
</svg>
