<svg width="16" height="15" viewBox="0 0 16 15" fill="none" xmlns="http://www.w3.org/2000/svg">
<path d="M4.74548 8.58398C4.74548 8.9076 5.00781 9.16992 5.33142 9.16992H10.9857C11.3093 9.16992 11.5717 8.9076 11.5717 8.58398C11.5717 8.26037 11.3093 7.99805 10.9857 7.99805H5.33142C5.00781 7.99805 4.74548 8.26037 4.74548 8.58398Z" fill="#100DB1"/>
<path d="M14.1181 8.68348L13.9244 7.30146C13.8795 6.98101 13.5834 6.75753 13.2628 6.80253C12.9423 6.84744 12.719 7.14366 12.7639 7.46414L13.0267 9.33914C13.0672 9.62848 13.3148 9.84375 13.6069 9.84375H13.9154C14.2385 9.84375 14.5013 10.1066 14.5013 10.4297C14.5013 10.7528 14.2385 11.0156 13.9154 11.0156H2.43103C2.10794 11.0156 1.84509 10.7528 1.84509 10.4297C1.84509 10.1066 2.10794 9.84375 2.43103 9.84375H2.73947C3.03165 9.84375 3.27917 9.62851 3.31972 9.33914L3.95054 4.83894C4.12049 3.62663 4.7889 2.55249 5.78441 1.89199C6.49451 1.4209 7.32361 1.17188 8.23181 1.17188C8.80213 1.18365 9.36475 1.29598 9.84179 1.50393C10.1385 1.63321 10.4837 1.49757 10.6131 1.20094C10.7424 0.904307 10.6067 0.558984 10.3101 0.429668C9.69208 0.160313 9.02283 0 8.23181 0C7.14791 0 6.03926 0.316582 5.13657 0.915498C3.86177 1.7613 3.00651 3.13204 2.79006 4.67628L2.22833 8.68351C1.35422 8.78435 0.673218 9.52898 0.673218 10.4297C0.673218 11.3989 1.46177 12.1875 2.43103 12.1875H13.9154C14.8847 12.1875 15.6732 11.3989 15.6732 10.4297C15.6732 9.52898 14.9922 8.78435 14.1181 8.68348Z" fill="#100DB1"/>
<path d="M8.20242 15C7.30954 15 6.55904 14.3364 6.45674 13.4563C6.41935 13.1349 6.64963 12.844 6.97107 12.8067C7.29252 12.7691 7.58338 12.9996 7.62076 13.321C7.65436 13.6101 7.90444 13.8281 8.20242 13.8281C8.5004 13.8281 8.75048 13.6101 8.78408 13.321C8.82146 12.9996 9.11253 12.7693 9.43377 12.8067C9.75521 12.844 9.98549 13.1349 9.9481 13.4563C9.8458 14.3364 9.0953 15 8.20242 15ZM15.0872 2.34375H13.3294V0.585938C13.3294 0.262324 13.0671 0 12.7434 0C12.4198 0 12.1575 0.262324 12.1575 0.585938V2.34375H10.3997C10.0761 2.34375 9.81375 2.60607 9.81375 2.92969C9.81375 3.2533 10.0761 3.51562 10.3997 3.51562H12.1575V5.27344C12.1575 5.59705 12.4198 5.85938 12.7434 5.85938C13.0671 5.85938 13.3294 5.59705 13.3294 5.27344V3.51562H15.0872C15.4108 3.51562 15.6731 3.2533 15.6731 2.92969C15.6731 2.60607 15.4108 2.34375 15.0872 2.34375Z" fill="#F80D38"/>
</svg>
