<svg width="20" height="20" viewBox="0 0 20 20" fill="none" xmlns="http://www.w3.org/2000/svg">
<path d="M14.5554 19.1161H4.46167C2.00622 19.1161 0.00854492 17.1184 0.00854492 14.663V4.56921C0.00854492 2.11376 2.00622 0.116089 4.46167 0.116089H14.5554C17.0109 0.116089 19.0085 2.11376 19.0085 4.56921V14.663C19.0085 17.1184 17.0109 19.1161 14.5554 19.1161ZM4.46167 1.60046C2.8247 1.60046 1.49292 2.93225 1.49292 4.56921V14.663C1.49292 16.2999 2.8247 17.6317 4.46167 17.6317H14.5554C16.1924 17.6317 17.5242 16.2999 17.5242 14.663V4.56921C17.5242 2.93225 16.1924 1.60046 14.5554 1.60046H4.46167ZM7.83862 3.86414C7.83862 3.45423 7.50635 3.12195 7.09644 3.12195H3.97925C3.56934 3.12195 3.23706 3.45423 3.23706 3.86414C3.23706 4.27405 3.56934 4.60632 3.97925 4.60632H7.09644C7.50635 4.60632 7.83862 4.27405 7.83862 3.86414ZM14.6296 12.5106C14.6296 12.1007 14.2974 11.7684 13.8875 11.7684H7.69019C7.28028 11.7684 6.948 12.1007 6.948 12.5106C6.948 12.9205 7.28028 13.2528 7.69019 13.2528H13.8875C14.2974 13.2528 14.6296 12.9205 14.6296 12.5106ZM15.6316 15.4052C15.6316 14.9952 15.2993 14.663 14.8894 14.663H13.2566C12.8467 14.663 12.5144 14.9952 12.5144 15.4052C12.5144 15.8151 12.8467 16.1473 13.2566 16.1473H14.8894C15.2993 16.1473 15.6316 15.8151 15.6316 15.4052Z" fill="#100DB1"/>
<path d="M15.0007 10.3583H9.76831C9.3584 10.3583 9.02612 10.026 9.02612 9.61609C9.02612 9.20618 9.3584 8.8739 9.76831 8.8739H15.0007C15.4106 8.8739 15.7429 9.20618 15.7429 9.61609C15.7429 10.026 15.4106 10.3583 15.0007 10.3583ZM13.1453 6.75867C13.1453 6.34876 12.813 6.01648 12.4031 6.01648H5.46362C5.05371 6.01648 4.72144 6.34876 4.72144 6.75867C4.72144 7.16858 5.05371 7.50085 5.46362 7.50085H12.4031C12.813 7.50085 13.1453 7.16858 13.1453 6.75867Z" fill="#F80D38"/>
</svg>
