<svg width="17" height="17" viewBox="0 0 17 17" fill="none" xmlns="http://www.w3.org/2000/svg">
<path d="M12.7273 11.7934C11.2626 11.7934 10.071 10.6018 10.071 9.13715C10.071 7.67249 11.2626 6.4809 12.7273 6.4809C14.192 6.4809 15.3835 7.67249 15.3835 9.13715C15.3835 10.6018 14.192 11.7934 12.7273 11.7934ZM12.7273 7.7309C11.9519 7.7309 11.321 8.36174 11.321 9.13715C11.321 9.91255 11.9519 10.5434 12.7273 10.5434C13.5027 10.5434 14.1335 9.91255 14.1335 9.13715C14.1335 8.36174 13.5027 7.7309 12.7273 7.7309ZM7.75854 16.2309C7.75854 15.8857 7.47873 15.6059 7.13354 15.6059H4.25789C2.87976 15.6059 1.75854 14.4847 1.75854 13.1066V4.60524C1.75854 3.22711 2.87976 2.1059 4.25789 2.1059H10.0098C11.388 2.1059 12.5092 3.22711 12.5092 4.60524C12.5092 4.95043 12.789 5.23024 13.1342 5.23024C13.4794 5.23024 13.7592 4.95043 13.7592 4.60524C13.7592 2.53786 12.0772 0.855896 10.0092 0.855896H4.25789C2.19051 0.855896 0.508545 2.53786 0.508545 4.60524V13.1065C0.508545 15.1739 2.19051 16.8559 4.25789 16.8559H7.13354C7.47873 16.8559 7.75854 16.5761 7.75854 16.2309ZM8.78979 7.94965C8.78979 7.60446 8.50998 7.32465 8.16479 7.32465H5.10229C4.75711 7.32465 4.47729 7.60446 4.47729 7.94965C4.47729 8.29483 4.75711 8.57465 5.10229 8.57465H8.16479C8.50998 8.57465 8.78979 8.29483 8.78979 7.94965ZM8.78979 12.7309C8.78979 12.3857 8.50998 12.1059 8.16479 12.1059H5.10229C4.75711 12.1059 4.47729 12.3857 4.47729 12.7309C4.47729 13.0761 4.75711 13.3559 5.10229 13.3559H8.16479C8.50998 13.3559 8.78979 13.0761 8.78979 12.7309ZM8.78979 10.3246C8.78979 9.97946 8.50998 9.69965 8.16479 9.69965H5.10229C4.75711 9.69965 4.47729 9.97946 4.47729 10.3246C4.47729 10.6698 4.75711 10.9496 5.10229 10.9496H8.16479C8.50998 10.9496 8.78979 10.6698 8.78979 10.3246Z" fill="#100DB1"/>
<path d="M15.8835 16.8559C15.5384 16.8559 15.2585 16.5761 15.2585 16.2309C15.2585 14.9902 14.2559 13.9809 13.0234 13.9809H12.4937C11.2612 13.9809 10.2585 14.9902 10.2585 16.2309C10.2585 16.5761 9.97873 16.8559 9.63354 16.8559C9.28836 16.8559 9.00854 16.5761 9.00854 16.2309C9.00854 14.301 10.572 12.7309 12.4937 12.7309H13.0234C14.9451 12.7309 16.5085 14.301 16.5085 16.2309C16.5085 16.5761 16.2287 16.8559 15.8835 16.8559ZM10.0398 5.5434C10.0398 5.19821 9.75998 4.9184 9.41479 4.9184H5.10229C4.75711 4.9184 4.47729 5.19821 4.47729 5.5434C4.47729 5.88858 4.75711 6.1684 5.10229 6.1684H9.41479C9.75998 6.1684 10.0398 5.88858 10.0398 5.5434Z" fill="#F80D38"/>
</svg>
