<svg width="16" height="15" viewBox="0 0 16 15" fill="none" xmlns="http://www.w3.org/2000/svg">
<path d="M6.19019 12.2865C2.78162 12.2865 0.00854492 9.70026 0.00854492 6.52135C0.00854492 3.34245 2.78162 0.756226 6.19019 0.756226C9.59877 0.756226 12.3718 3.34245 12.3718 6.52135C12.3718 9.70026 9.59874 12.2865 6.19019 12.2865ZM6.19019 1.84914C3.42779 1.84914 1.18042 3.94508 1.18042 6.52135C1.18042 9.09763 3.42779 11.1936 6.19019 11.1936C8.9526 11.1936 11.2 9.09763 11.2 6.52135C11.2 3.94508 8.95257 1.84914 6.19019 1.84914Z" fill="#100DB1"/>
<path d="M14.837 14.5961C14.7226 14.7028 14.5727 14.7562 14.4227 14.7562C14.2727 14.7562 14.1228 14.7028 14.0084 14.5961L11.3863 12.1507C11.1575 11.9373 11.1575 11.5913 11.3863 11.3779C11.6151 11.1645 11.9861 11.1645 12.2149 11.3779L14.837 13.8233C15.0658 14.0368 15.0658 14.3827 14.837 14.5961ZM8.98195 5.57445L8.5916 5.79287C8.66809 6.01577 8.70978 6.25307 8.70978 6.49933C8.70978 6.74559 8.66809 6.98289 8.5916 7.20579L8.98192 7.42421C9.25942 7.57948 9.34939 7.91515 9.1829 8.17392C9.07304 8.34469 8.87894 8.43931 8.6799 8.43931C8.5773 8.43931 8.47339 8.41417 8.37899 8.36136L7.98143 8.13889C7.66277 8.43674 7.25795 8.65401 6.80543 8.7562V9.23159C6.80543 9.5334 6.5431 9.77805 6.21949 9.77805C5.89587 9.77805 5.63355 9.5334 5.63355 9.23159V8.7562C5.17072 8.65166 4.75813 8.42638 4.43624 8.11805L4.00142 8.36136C3.90705 8.41417 3.80311 8.43931 3.70051 8.43931C3.50144 8.43931 3.30738 8.34469 3.19751 8.17392C3.03102 7.91515 3.12102 7.57946 3.39849 7.42421L3.83803 7.17825C3.76745 6.96338 3.72922 6.73545 3.72922 6.49933C3.72922 6.2632 3.76745 6.03528 3.83803 5.82041L3.39846 5.57445C3.12096 5.41917 3.03099 5.08351 3.19748 4.82471C3.36401 4.56591 3.72389 4.482 4.00139 4.63727L4.43621 4.88058C4.7581 4.57222 5.17069 4.34697 5.63352 4.24243V3.76704C5.63352 3.46523 5.89585 3.22058 6.21946 3.22058C6.54307 3.22058 6.8054 3.46523 6.8054 3.76704V4.24243C7.25792 4.34462 7.66274 4.56189 7.9814 4.85974L8.37893 4.63727C8.65646 4.482 9.01635 4.56593 9.18284 4.82471C9.34942 5.08351 9.25942 5.41917 8.98195 5.57445ZM7.53791 6.49933C7.53791 5.82137 6.94649 5.2698 6.21955 5.2698C5.4926 5.2698 4.90119 5.82137 4.90119 6.49933C4.90119 7.17729 5.4926 7.72886 6.21955 7.72886C6.94649 7.72886 7.53791 7.17729 7.53791 6.49933Z" fill="#F80D38"/>
</svg>
